<svg width="261" height="280" viewBox="0 0 261 280" fill="none" xmlns="http://www.w3.org/2000/svg">
<path d="M138.523 144.785C138.523 149.185 138.523 152.885 138.523 156.485C138.523 183.785 138.523 211.085 138.523 238.385C138.523 246.485 137.723 247.385 129.423 247.885C128.123 247.985 126.723 247.885 125.423 247.785C118.223 247.085 117.623 246.385 117.623 239.185C117.623 212.685 117.623 186.285 117.623 159.785C117.623 155.285 117.623 150.885 117.623 145.985C105.723 146.685 95.1232 150.185 84.7232 154.485C62.0232 163.985 47.5232 181.285 38.5232 203.985C29.9232 225.785 24.6232 248.385 21.2232 271.485C20.2232 278.585 19.7232 278.985 12.5232 279.685C11.2232 279.785 9.82324 279.885 8.52324 279.785C0.12324 279.185 -0.576761 278.285 0.623239 270.085C3.82324 248.785 9.02324 228.085 16.0232 207.685C28.5232 171.185 54.6232 150.785 91.1232 141.985C93.3232 141.485 95.6232 140.985 98.0232 139.685C96.0232 139.085 93.9232 138.685 91.9232 137.985C81.5232 134.185 70.8232 131.085 60.8232 126.385C42.8232 117.785 30.0232 103.485 21.7232 85.3851C10.1232 60.2851 4.22324 33.7851 0.123239 6.68509C-0.476761 2.78509 1.12324 1.08509 4.72324 0.585092C6.22324 0.385092 7.72324 0.185092 9.22324 0.0850919C18.4232 -0.414908 20.1232 1.08509 21.5232 10.0851C25.2232 34.1851 31.0232 57.6851 40.4232 80.2851C52.3232 108.785 74.4232 124.485 103.323 131.985C107.823 133.085 112.423 133.685 117.723 134.685C117.723 132.085 117.723 130.185 117.723 128.185C117.723 97.0851 117.723 65.9851 117.723 34.7851C117.723 27.8851 118.323 27.1851 125.223 26.4851C126.523 26.3851 127.923 26.1851 129.223 26.2851C137.723 26.6851 138.523 27.5851 138.523 35.9851C138.523 66.9851 138.523 97.8851 138.523 128.885C138.523 130.885 138.523 132.785 138.523 134.985C160.823 132.685 180.823 125.885 197.823 111.685C209.323 102.085 216.023 89.3851 221.623 75.8851C230.623 54.1851 235.723 31.4851 238.923 8.38509C239.623 2.88509 241.823 0.285092 247.323 0.285092C248.123 0.285092 249.023 0.0850919 249.823 0.0850919C259.523 -0.0149081 260.923 1.38509 259.423 10.8851C256.023 32.9851 250.623 54.4851 242.923 75.5851C231.123 107.485 208.323 126.785 176.223 135.985C171.623 137.285 167.023 138.385 160.923 139.985C165.723 141.185 169.323 141.985 172.723 142.985C197.823 150.185 220.423 161.585 233.423 185.585C239.923 197.485 245.223 210.285 249.023 223.285C253.723 239.385 256.323 256.085 259.923 272.485C261.023 277.285 259.023 279.385 254.423 279.585C252.923 279.685 251.423 279.985 249.923 279.985C241.223 279.985 240.123 278.885 238.823 270.385C235.123 246.085 229.323 222.485 219.823 199.785C207.923 171.285 185.823 155.585 156.823 148.185C151.123 146.585 145.123 145.985 138.523 144.785Z" fill="#231F20"/>
</svg>
